<svg viewBox="0 0 512 512" xml:space="preserve" xmlns="http://www.w3.org/2000/svg"><path clip-rule="evenodd" d="M25.701 0h460.897C500.509 0 512 11.492 512 25.707v460.892c0 13.91-11.491 25.401-25.401 25.401H25.701C11.492 512 0 500.509 0 486.599V25.707C0 11.492 11.492 0 25.701 0zm281.557 120.063c0 21.169 17.237 38.407 38.712 38.407 21.165 0 38.402-17.238 38.402-38.407 0-21.475-17.237-38.712-38.402-38.712a38.592 38.592 0 0 0-38.712 38.712zm-91.634-32.361c-49.904 0-82.261 29.639-88.606 60.182-.609 3.632-1.209 7.26-1.209 10.887v28.43H92.233v56.554h33.576v128.527H92.233v58.367h146.074v-58.367h-33.875V243.754h102.226v128.527h-32.966v58.367h146.374v-58.367h-34.785V187.2H204.432v-16.938c0-13.91 13.61-22.378 25.102-22.378h28.119V87.702h-42.029z" fill="#faf9fa" fill-rule="evenodd" class="fill-010101"></path></svg>